<mxfile host="app.diagrams.net" modified="2024-05-17T16:02:05.616Z" agent="Mozilla/5.0 (Windows NT 10.0; Win64; x64) AppleWebKit/537.36 (KHTML, like Gecko) Chrome/124.0.0.0 Safari/537.36" etag="XJiqBkSETVK2l7G0W_r2" version="24.4.4" type="github">
  <diagram name="Página-1" id="7yW3dnD33j_y7AzgzI-6">
    <mxGraphModel dx="880" dy="468" grid="1" gridSize="10" guides="1" tooltips="1" connect="1" arrows="1" fold="1" page="1" pageScale="1" pageWidth="827" pageHeight="1169" math="0" shadow="0">
      <root>
        <mxCell id="0" />
        <mxCell id="1" parent="0" />
        <mxCell id="vU7AhHI-blivytf-z6Z7-2" style="edgeStyle=orthogonalEdgeStyle;rounded=0;orthogonalLoop=1;jettySize=auto;html=1;" edge="1" parent="1" source="vU7AhHI-blivytf-z6Z7-1">
          <mxGeometry relative="1" as="geometry">
            <mxPoint x="414" y="110" as="targetPoint" />
          </mxGeometry>
        </mxCell>
        <mxCell id="vU7AhHI-blivytf-z6Z7-3" style="edgeStyle=orthogonalEdgeStyle;rounded=0;orthogonalLoop=1;jettySize=auto;html=1;" edge="1" parent="1" source="vU7AhHI-blivytf-z6Z7-1">
          <mxGeometry relative="1" as="geometry">
            <mxPoint x="540" y="30" as="targetPoint" />
          </mxGeometry>
        </mxCell>
        <mxCell id="vU7AhHI-blivytf-z6Z7-1" value="&lt;b&gt;INICIO&lt;/b&gt;" style="rounded=1;whiteSpace=wrap;html=1;" vertex="1" parent="1">
          <mxGeometry x="354" width="120" height="60" as="geometry" />
        </mxCell>
        <mxCell id="vU7AhHI-blivytf-z6Z7-4" value="&lt;div&gt;resultado&lt;/div&gt;&lt;div&gt;escolha&lt;/div&gt;&lt;div&gt;comparador&lt;/div&gt;num1&lt;div&gt;num2 &amp;lt;- sorteio&lt;/div&gt;&lt;div&gt;soma = num1 + num2&lt;/div&gt;&lt;div&gt;verificador = soma % 2&lt;/div&gt;" style="rounded=0;whiteSpace=wrap;html=1;align=left;" vertex="1" parent="1">
          <mxGeometry x="540" y="10" width="140" height="100" as="geometry" />
        </mxCell>
        <mxCell id="vU7AhHI-blivytf-z6Z7-7" style="edgeStyle=orthogonalEdgeStyle;rounded=0;orthogonalLoop=1;jettySize=auto;html=1;" edge="1" parent="1" source="vU7AhHI-blivytf-z6Z7-6">
          <mxGeometry relative="1" as="geometry">
            <mxPoint x="414" y="210" as="targetPoint" />
          </mxGeometry>
        </mxCell>
        <mxCell id="vU7AhHI-blivytf-z6Z7-15" style="edgeStyle=orthogonalEdgeStyle;rounded=0;orthogonalLoop=1;jettySize=auto;html=1;" edge="1" parent="1" source="vU7AhHI-blivytf-z6Z7-6">
          <mxGeometry relative="1" as="geometry">
            <mxPoint x="290" y="140" as="targetPoint" />
          </mxGeometry>
        </mxCell>
        <mxCell id="vU7AhHI-blivytf-z6Z7-6" value="Olá, eu te desafio para um ímpar ou par!" style="rounded=0;whiteSpace=wrap;html=1;" vertex="1" parent="1">
          <mxGeometry x="354" y="110" width="120" height="60" as="geometry" />
        </mxCell>
        <mxCell id="vU7AhHI-blivytf-z6Z7-9" value="" style="swimlane;startSize=0;" vertex="1" parent="1">
          <mxGeometry x="310" y="220" width="204" height="110" as="geometry" />
        </mxCell>
        <mxCell id="vU7AhHI-blivytf-z6Z7-13" style="edgeStyle=orthogonalEdgeStyle;rounded=0;orthogonalLoop=1;jettySize=auto;html=1;" edge="1" parent="vU7AhHI-blivytf-z6Z7-9" source="vU7AhHI-blivytf-z6Z7-8">
          <mxGeometry relative="1" as="geometry">
            <mxPoint x="104" y="150" as="targetPoint" />
          </mxGeometry>
        </mxCell>
        <mxCell id="vU7AhHI-blivytf-z6Z7-8" value="" style="shape=lineEllipse;line=vertical;perimeter=ellipsePerimeter;whiteSpace=wrap;html=1;backgroundOutline=1;" vertex="1" parent="vU7AhHI-blivytf-z6Z7-9">
          <mxGeometry x="4" y="30" width="200" height="80" as="geometry" />
        </mxCell>
        <mxCell id="vU7AhHI-blivytf-z6Z7-10" value="Escolha se você é ímpar ou par:" style="text;html=1;align=center;verticalAlign=middle;resizable=0;points=[];autosize=1;strokeColor=none;fillColor=none;" vertex="1" parent="vU7AhHI-blivytf-z6Z7-9">
          <mxGeometry x="4" width="200" height="30" as="geometry" />
        </mxCell>
        <mxCell id="vU7AhHI-blivytf-z6Z7-11" value="&lt;b&gt;ímpar&lt;/b&gt;" style="text;html=1;align=center;verticalAlign=middle;resizable=0;points=[];autosize=1;strokeColor=none;fillColor=none;" vertex="1" parent="vU7AhHI-blivytf-z6Z7-9">
          <mxGeometry x="25" y="55" width="60" height="30" as="geometry" />
        </mxCell>
        <mxCell id="vU7AhHI-blivytf-z6Z7-12" value="&lt;b&gt;Par&lt;/b&gt;" style="text;html=1;align=center;verticalAlign=middle;resizable=0;points=[];autosize=1;strokeColor=none;fillColor=none;" vertex="1" parent="vU7AhHI-blivytf-z6Z7-9">
          <mxGeometry x="130" y="55" width="40" height="30" as="geometry" />
        </mxCell>
        <mxCell id="vU7AhHI-blivytf-z6Z7-44" style="edgeStyle=orthogonalEdgeStyle;rounded=0;orthogonalLoop=1;jettySize=auto;html=1;" edge="1" parent="1" source="vU7AhHI-blivytf-z6Z7-14">
          <mxGeometry relative="1" as="geometry">
            <mxPoint x="414" y="771" as="targetPoint" />
          </mxGeometry>
        </mxCell>
        <mxCell id="vU7AhHI-blivytf-z6Z7-14" value="escolha &amp;lt;- entrada" style="ellipse;whiteSpace=wrap;html=1;" vertex="1" parent="1">
          <mxGeometry x="354" y="370" width="120" height="30" as="geometry" />
        </mxCell>
        <mxCell id="vU7AhHI-blivytf-z6Z7-17" style="edgeStyle=orthogonalEdgeStyle;rounded=0;orthogonalLoop=1;jettySize=auto;html=1;" edge="1" parent="1" source="vU7AhHI-blivytf-z6Z7-16">
          <mxGeometry relative="1" as="geometry">
            <mxPoint x="230" y="210" as="targetPoint" />
          </mxGeometry>
        </mxCell>
        <mxCell id="vU7AhHI-blivytf-z6Z7-19" style="edgeStyle=orthogonalEdgeStyle;rounded=0;orthogonalLoop=1;jettySize=auto;html=1;" edge="1" parent="1" source="vU7AhHI-blivytf-z6Z7-16" target="vU7AhHI-blivytf-z6Z7-20">
          <mxGeometry relative="1" as="geometry">
            <mxPoint x="110" y="140" as="targetPoint" />
          </mxGeometry>
        </mxCell>
        <mxCell id="vU7AhHI-blivytf-z6Z7-16" value="Agora escolha um número de 1 até 5:" style="rounded=0;whiteSpace=wrap;html=1;" vertex="1" parent="1">
          <mxGeometry x="170" y="110" width="120" height="60" as="geometry" />
        </mxCell>
        <mxCell id="vU7AhHI-blivytf-z6Z7-18" value="num1 &amp;lt;- entrada" style="ellipse;whiteSpace=wrap;html=1;" vertex="1" parent="1">
          <mxGeometry x="170" y="210" width="120" height="30" as="geometry" />
        </mxCell>
        <mxCell id="vU7AhHI-blivytf-z6Z7-21" style="edgeStyle=orthogonalEdgeStyle;rounded=0;orthogonalLoop=1;jettySize=auto;html=1;" edge="1" parent="1" source="vU7AhHI-blivytf-z6Z7-20">
          <mxGeometry relative="1" as="geometry">
            <mxPoint x="60" y="210" as="targetPoint" />
          </mxGeometry>
        </mxCell>
        <mxCell id="vU7AhHI-blivytf-z6Z7-20" value="Agora eu vou escolher o meu número de 1 até 5 também:" style="rounded=0;whiteSpace=wrap;html=1;" vertex="1" parent="1">
          <mxGeometry y="110" width="120" height="60" as="geometry" />
        </mxCell>
        <mxCell id="vU7AhHI-blivytf-z6Z7-22" value="num2 &amp;lt;- sorteio" style="ellipse;whiteSpace=wrap;html=1;" vertex="1" parent="1">
          <mxGeometry y="210" width="120" height="30" as="geometry" />
        </mxCell>
        <mxCell id="vU7AhHI-blivytf-z6Z7-32" style="edgeStyle=orthogonalEdgeStyle;rounded=0;orthogonalLoop=1;jettySize=auto;html=1;" edge="1" parent="1" source="vU7AhHI-blivytf-z6Z7-28">
          <mxGeometry relative="1" as="geometry">
            <mxPoint x="150" y="480" as="targetPoint" />
          </mxGeometry>
        </mxCell>
        <mxCell id="vU7AhHI-blivytf-z6Z7-28" value="&lt;b&gt;soma = num1 + num2&lt;/b&gt;" style="ellipse;whiteSpace=wrap;html=1;" vertex="1" parent="1">
          <mxGeometry x="80" y="330" width="140" height="60" as="geometry" />
        </mxCell>
        <mxCell id="vU7AhHI-blivytf-z6Z7-29" value="" style="endArrow=classic;html=1;rounded=0;exitX=0.5;exitY=1;exitDx=0;exitDy=0;entryX=0.007;entryY=0.283;entryDx=0;entryDy=0;entryPerimeter=0;" edge="1" parent="1" source="vU7AhHI-blivytf-z6Z7-22" target="vU7AhHI-blivytf-z6Z7-28">
          <mxGeometry width="50" height="50" relative="1" as="geometry">
            <mxPoint x="390" y="370" as="sourcePoint" />
            <mxPoint x="440" y="320" as="targetPoint" />
            <Array as="points">
              <mxPoint x="30" y="347" />
            </Array>
          </mxGeometry>
        </mxCell>
        <mxCell id="vU7AhHI-blivytf-z6Z7-31" value="" style="endArrow=classic;html=1;rounded=0;exitX=0.5;exitY=1;exitDx=0;exitDy=0;entryX=0.964;entryY=0.283;entryDx=0;entryDy=0;entryPerimeter=0;" edge="1" parent="1" source="vU7AhHI-blivytf-z6Z7-18" target="vU7AhHI-blivytf-z6Z7-28">
          <mxGeometry width="50" height="50" relative="1" as="geometry">
            <mxPoint x="230" y="290" as="sourcePoint" />
            <mxPoint x="251" y="397" as="targetPoint" />
            <Array as="points">
              <mxPoint x="280" y="347" />
            </Array>
          </mxGeometry>
        </mxCell>
        <mxCell id="vU7AhHI-blivytf-z6Z7-35" style="edgeStyle=orthogonalEdgeStyle;rounded=0;orthogonalLoop=1;jettySize=auto;html=1;entryX=0.5;entryY=0;entryDx=0;entryDy=0;" edge="1" parent="1" source="vU7AhHI-blivytf-z6Z7-33" target="vU7AhHI-blivytf-z6Z7-34">
          <mxGeometry relative="1" as="geometry" />
        </mxCell>
        <mxCell id="vU7AhHI-blivytf-z6Z7-33" value="verificador = soma % 2" style="ellipse;whiteSpace=wrap;html=1;" vertex="1" parent="1">
          <mxGeometry x="80" y="480" width="140" height="40" as="geometry" />
        </mxCell>
        <mxCell id="vU7AhHI-blivytf-z6Z7-34" value="" style="shape=lineEllipse;line=vertical;perimeter=ellipsePerimeter;whiteSpace=wrap;html=1;backgroundOutline=1;" vertex="1" parent="1">
          <mxGeometry x="30" y="560" width="240" height="80" as="geometry" />
        </mxCell>
        <mxCell id="vU7AhHI-blivytf-z6Z7-36" value="Se verificador == 0" style="text;html=1;align=center;verticalAlign=middle;resizable=0;points=[];autosize=1;strokeColor=none;fillColor=none;" vertex="1" parent="1">
          <mxGeometry x="30" y="585" width="120" height="30" as="geometry" />
        </mxCell>
        <mxCell id="vU7AhHI-blivytf-z6Z7-37" value="Se verificador == 1" style="text;html=1;align=center;verticalAlign=middle;resizable=0;points=[];autosize=1;strokeColor=none;fillColor=none;" vertex="1" parent="1">
          <mxGeometry x="150" y="585" width="120" height="30" as="geometry" />
        </mxCell>
        <mxCell id="vU7AhHI-blivytf-z6Z7-38" value="" style="shape=singleArrow;direction=south;whiteSpace=wrap;html=1;" vertex="1" parent="1">
          <mxGeometry x="60" y="640" width="60" height="100" as="geometry" />
        </mxCell>
        <mxCell id="vU7AhHI-blivytf-z6Z7-39" value="" style="shape=singleArrow;direction=south;whiteSpace=wrap;html=1;" vertex="1" parent="1">
          <mxGeometry x="180" y="640" width="60" height="100" as="geometry" />
        </mxCell>
        <mxCell id="vU7AhHI-blivytf-z6Z7-40" value="resultado = PAR" style="ellipse;whiteSpace=wrap;html=1;" vertex="1" parent="1">
          <mxGeometry x="40" y="740" width="100" height="50" as="geometry" />
        </mxCell>
        <mxCell id="vU7AhHI-blivytf-z6Z7-41" value="resultado = ÍMPAR" style="ellipse;whiteSpace=wrap;html=1;" vertex="1" parent="1">
          <mxGeometry x="160" y="740" width="110" height="50" as="geometry" />
        </mxCell>
        <mxCell id="vU7AhHI-blivytf-z6Z7-42" value="" style="endArrow=classic;html=1;rounded=0;exitX=0.5;exitY=1;exitDx=0;exitDy=0;" edge="1" parent="1" source="vU7AhHI-blivytf-z6Z7-40">
          <mxGeometry width="50" height="50" relative="1" as="geometry">
            <mxPoint x="390" y="770" as="sourcePoint" />
            <mxPoint x="360" y="840" as="targetPoint" />
            <Array as="points">
              <mxPoint x="90" y="840" />
            </Array>
          </mxGeometry>
        </mxCell>
        <mxCell id="vU7AhHI-blivytf-z6Z7-43" value="" style="endArrow=classic;html=1;rounded=0;exitX=0.5;exitY=1;exitDx=0;exitDy=0;" edge="1" parent="1" source="vU7AhHI-blivytf-z6Z7-41">
          <mxGeometry width="50" height="50" relative="1" as="geometry">
            <mxPoint x="390" y="770" as="sourcePoint" />
            <mxPoint x="360" y="790" as="targetPoint" />
            <Array as="points">
              <mxPoint x="240" y="790" />
            </Array>
          </mxGeometry>
        </mxCell>
        <mxCell id="vU7AhHI-blivytf-z6Z7-46" style="edgeStyle=orthogonalEdgeStyle;rounded=0;orthogonalLoop=1;jettySize=auto;html=1;" edge="1" parent="1" source="vU7AhHI-blivytf-z6Z7-45">
          <mxGeometry relative="1" as="geometry">
            <mxPoint x="510" y="825" as="targetPoint" />
          </mxGeometry>
        </mxCell>
        <mxCell id="vU7AhHI-blivytf-z6Z7-45" value="logico comparador = verdadeiro" style="whiteSpace=wrap;html=1;aspect=fixed;" vertex="1" parent="1">
          <mxGeometry x="374" y="780" width="90" height="90" as="geometry" />
        </mxCell>
        <mxCell id="vU7AhHI-blivytf-z6Z7-48" style="edgeStyle=orthogonalEdgeStyle;rounded=0;orthogonalLoop=1;jettySize=auto;html=1;" edge="1" parent="1" source="vU7AhHI-blivytf-z6Z7-47">
          <mxGeometry relative="1" as="geometry">
            <mxPoint x="589" y="950" as="targetPoint" />
          </mxGeometry>
        </mxCell>
        <mxCell id="vU7AhHI-blivytf-z6Z7-47" value="se(comparador ==(resultado==escolha)){&lt;div&gt;escreva(&quot;Você ganhou!&quot;) }&lt;/div&gt;&lt;div&gt;&lt;br&gt;&lt;/div&gt;&lt;div&gt;senao{&lt;/div&gt;&lt;div&gt;escreva(&quot;Você perdeu! A máquina ganhou.&quot;) }&lt;/div&gt;" style="rounded=0;whiteSpace=wrap;html=1;" vertex="1" parent="1">
          <mxGeometry x="514" y="780" width="150" height="105" as="geometry" />
        </mxCell>
        <mxCell id="vU7AhHI-blivytf-z6Z7-49" value="&lt;b&gt;FIM&lt;/b&gt;" style="rounded=1;whiteSpace=wrap;html=1;" vertex="1" parent="1">
          <mxGeometry x="529" y="950" width="120" height="60" as="geometry" />
        </mxCell>
        <mxCell id="vU7AhHI-blivytf-z6Z7-50" value="&lt;b&gt;&lt;font style=&quot;font-size: 20px;&quot;&gt;TIRAR PAR OU ÍMPAR&amp;nbsp;&lt;/font&gt;&lt;/b&gt;&lt;div&gt;&lt;b&gt;&lt;font style=&quot;font-size: 20px;&quot;&gt;COM A MÁQUINA&lt;/font&gt;&lt;/b&gt;&lt;/div&gt;" style="text;html=1;align=center;verticalAlign=middle;resizable=0;points=[];autosize=1;strokeColor=none;fillColor=none;labelBackgroundColor=#3333FF;labelBorderColor=default;" vertex="1" parent="1">
          <mxGeometry x="70" y="10" width="240" height="60" as="geometry" />
        </mxCell>
      </root>
    </mxGraphModel>
  </diagram>
</mxfile>
